<svg width="8" height="9" viewBox="0 0 8 9" fill="none" xmlns="http://www.w3.org/2000/svg">
<path opacity="0.8" d="M4.79688 4.5L7.70312 7.40625C7.72656 7.45312 7.75 7.5 7.75 7.54688C7.75 7.59375 7.72656 7.64062 7.70312 7.66406L7.16406 8.20312C7.11719 8.25 7.07031 8.25 7.02344 8.25C6.97656 8.25 6.92969 8.25 6.90625 8.20312L4 5.29688L1.09375 8.20312C1.04688 8.25 1 8.25 0.953125 8.25C0.90625 8.25 0.859375 8.25 0.835938 8.20312L0.296875 7.66406C0.25 7.64062 0.25 7.59375 0.25 7.54688C0.25 7.5 0.25 7.45312 0.296875 7.40625L3.20312 4.5L0.296875 1.59375C0.25 1.57031 0.25 1.52344 0.25 1.47656C0.25 1.42969 0.25 1.38281 0.296875 1.33594L0.835938 0.796875C0.859375 0.773438 0.90625 0.75 0.953125 0.75C1 0.75 1.04688 0.773438 1.09375 0.796875L4 3.70312L6.90625 0.796875C6.92969 0.773438 6.97656 0.75 7.02344 0.75C7.07031 0.75 7.11719 0.773438 7.16406 0.796875L7.70312 1.33594C7.72656 1.38281 7.75 1.42969 7.75 1.47656C7.75 1.52344 7.72656 1.57031 7.70312 1.59375L7.21094 2.08594L4.79688 4.5Z" fill="#303342"/>
</svg>
