<svg width="24" height="24" viewBox="0 0 24 24" fill="none" xmlns="http://www.w3.org/2000/svg">
<circle cx="12" cy="12" r="11" fill="#4ABB94"/>
<path d="M18 11.7188C18 11.5781 17.9062 11.4375 17.8125 11.3438C17.7188 11.25 17.5781 11.1562 17.4375 11.1562H12.8438V6.5625C12.8438 6.42188 12.75 6.28125 12.6562 6.1875C12.5625 6.09375 12.4219 6 12.2812 6H11.7188C11.5312 6 11.3906 6.09375 11.2969 6.1875C11.2031 6.28125 11.1562 6.42188 11.1562 6.5625V11.1562H6.5625C6.375 11.1562 6.23438 11.25 6.14062 11.3438C6.04688 11.4375 6 11.5781 6 11.7188V12.2812C6 12.4688 6.04688 12.6094 6.14062 12.7031C6.23438 12.7969 6.375 12.8438 6.5625 12.8438H11.1562V17.4375C11.1562 17.625 11.2031 17.7656 11.2969 17.8594C11.3906 17.9531 11.5312 18 11.7188 18H12.2812C12.4219 18 12.5625 17.9531 12.6562 17.8594C12.75 17.7656 12.8438 17.625 12.8438 17.4375V12.8438H17.4375C17.5781 12.8438 17.7188 12.7969 17.8125 12.7031C17.9062 12.6094 18 12.4688 18 12.2812V11.7188ZM23.625 12C23.625 9.9375 23.0625 7.96875 22.0312 6.1875C21 4.40625 19.5938 3 17.8125 1.96875C16.0312 0.9375 14.0625 0.375 12 0.375C9.89062 0.375 7.96875 0.9375 6.1875 1.96875C4.40625 3 2.95312 4.40625 1.92188 6.1875C0.890625 7.96875 0.375 9.9375 0.375 12C0.375 14.1094 0.890625 16.0312 1.92188 17.8125C2.95312 19.5938 4.40625 21.0469 6.1875 22.0781C7.96875 23.1094 9.89062 23.625 12 23.625C14.0625 23.625 16.0312 23.1094 17.8125 22.0781C19.5938 21.0469 21 19.5938 22.0312 17.8125C23.0625 16.0312 23.625 14.1094 23.625 12ZM22.125 12C22.125 13.8281 21.6562 15.5156 20.7656 17.0625C19.8281 18.6562 18.6094 19.875 17.0625 20.7656C15.5156 21.7031 13.8281 22.125 12 22.125C10.1719 22.125 8.48438 21.7031 6.9375 20.7656C5.34375 19.875 4.125 18.6562 3.23438 17.1094C2.29688 15.5625 1.875 13.875 1.875 12.0469C1.875 10.2188 2.29688 8.53125 3.23438 6.9375C4.125 5.39062 5.34375 4.17188 6.89062 3.23438C8.4375 2.34375 10.125 1.875 11.9531 1.875C13.7812 1.875 15.4688 2.34375 17.0625 3.23438C18.6094 4.17188 19.8281 5.39062 20.7656 6.9375C21.6562 8.48438 22.125 10.1719 22.125 12Z" fill="white"/>
</svg>
