<svg width="16" height="17" viewBox="0 0 16 17" fill="none" xmlns="http://www.w3.org/2000/svg">
<path fill-rule="evenodd" clip-rule="evenodd" d="M8 0.129883C3.58214 0.129883 0 3.68505 0 8.06964C0 12.4542 3.58214 16.0094 8 16.0094C12.4179 16.0094 16 12.4542 16 8.06964C16 3.68505 12.4179 0.129883 8 0.129883ZM11.8678 10.7458C11.9214 10.7989 11.95 10.8698 11.95 10.9443C11.95 11.0187 11.9214 11.0931 11.8678 11.1428L11.0964 11.9119C11.0392 11.9686 10.9678 11.9935 10.8964 11.9935C10.825 11.9935 10.75 11.9651 10.6964 11.9119L7.99996 9.23226L5.3071 11.9155C5.25353 11.9722 5.17853 11.997 5.1071 11.997C5.03567 11.997 4.96067 11.9686 4.9071 11.9155L4.13567 11.1463C4.0821 11.0931 4.05353 11.0222 4.05353 10.9478C4.05353 10.8734 4.0821 10.7989 4.13567 10.7493L6.83924 8.05547L4.12853 5.39707C4.01781 5.28719 4.01781 5.10642 4.12853 4.99654L4.89996 4.22738C4.95353 4.17421 5.02496 4.14585 5.09996 4.14585C5.17496 4.14585 5.24639 4.17421 5.29996 4.22738L8.00353 6.87514L10.7071 4.22738C10.7607 4.17421 10.8321 4.14585 10.9071 4.14585C10.9821 4.14585 11.0535 4.17421 11.1071 4.22738L11.8785 4.99654C11.9892 5.10642 11.9892 5.28719 11.8785 5.39707L9.16781 8.05547L11.8678 10.7458Z" fill="#303342" fill-opacity="0.2"/>
<mask id="mask0" mask-type="alpha" maskUnits="userSpaceOnUse" x="0" y="0" width="16" height="17">
<path fill-rule="evenodd" clip-rule="evenodd" d="M8 0.129883C3.58214 0.129883 0 3.68505 0 8.06964C0 12.4542 3.58214 16.0094 8 16.0094C12.4179 16.0094 16 12.4542 16 8.06964C16 3.68505 12.4179 0.129883 8 0.129883ZM11.8678 10.7458C11.9214 10.7989 11.95 10.8698 11.95 10.9443C11.95 11.0187 11.9214 11.0931 11.8678 11.1428L11.0964 11.9119C11.0392 11.9686 10.9678 11.9935 10.8964 11.9935C10.825 11.9935 10.75 11.9651 10.6964 11.9119L7.99996 9.23226L5.3071 11.9155C5.25353 11.9722 5.17853 11.997 5.1071 11.997C5.03567 11.997 4.96067 11.9686 4.9071 11.9155L4.13567 11.1463C4.0821 11.0931 4.05353 11.0222 4.05353 10.9478C4.05353 10.8734 4.0821 10.7989 4.13567 10.7493L6.83924 8.05547L4.12853 5.39707C4.01781 5.28719 4.01781 5.10642 4.12853 4.99654L4.89996 4.22738C4.95353 4.17421 5.02496 4.14585 5.09996 4.14585C5.17496 4.14585 5.24639 4.17421 5.29996 4.22738L8.00353 6.87514L10.7071 4.22738C10.7607 4.17421 10.8321 4.14585 10.9071 4.14585C10.9821 4.14585 11.0535 4.17421 11.1071 4.22738L11.8785 4.99654C11.9892 5.10642 11.9892 5.28719 11.8785 5.39707L9.16781 8.05547L11.8678 10.7458Z" fill="white"/>
</mask>
<g mask="url(#mask0)">
<rect y="0.129883" width="16" height="16" fill="#303342" fill-opacity="0.2"/>
</g>
</svg>
