<svg width="14" height="15" viewBox="0 0 14 15" fill="none" xmlns="http://www.w3.org/2000/svg">
<path d="M12.3594 12.5625C12.3594 12.4258 12.3047 12.2891 12.1953 12.1797C12.0859 12.0703 11.9492 12.0156 11.8125 12.0156C11.6484 12.0156 11.5391 12.0703 11.4297 12.1797C11.3203 12.2891 11.2656 12.4258 11.2656 12.5625C11.2656 12.7266 11.3203 12.8359 11.4297 12.9453C11.5391 13.0547 11.6484 13.1094 11.8125 13.1094C11.9492 13.1094 12.0859 13.0547 12.1953 12.9453C12.3047 12.8359 12.3594 12.7266 12.3594 12.5625ZM10.0625 12.0156C10.1992 12.0156 10.3359 12.0703 10.4453 12.1797C10.5547 12.2891 10.6094 12.4258 10.6094 12.5625C10.6094 12.7266 10.5547 12.8359 10.4453 12.9453C10.3359 13.0547 10.1992 13.1094 10.0625 13.1094C9.89844 13.1094 9.78906 13.0547 9.67969 12.9453C9.57031 12.8359 9.51562 12.7266 9.51562 12.5625C9.51562 12.4258 9.57031 12.2891 9.67969 12.1797C9.78906 12.0703 9.89844 12.0156 10.0625 12.0156ZM14 10.7031C14 10.375 13.8633 10.1016 13.6445 9.85547C13.3984 9.63672 13.125 9.5 12.7969 9.5H9.40625V6.79297H10.8555C11.1562 6.79297 11.4023 6.68359 11.6211 6.46484C11.8125 6.24609 11.9219 6 11.9219 5.69922C11.9219 5.42578 11.8398 5.15234 11.6211 4.90625L7.76562 1.07812C7.54688 0.859375 7.30078 0.75 7 0.75C6.67188 0.75 6.42578 0.859375 6.23438 1.07812L2.37891 4.90625C2.16016 5.15234 2.05078 5.42578 2.05078 5.69922C2.05078 6 2.16016 6.24609 2.37891 6.46484C2.57031 6.68359 2.81641 6.79297 3.14453 6.79297H4.59375V9.5H1.20312C0.875 9.5 0.574219 9.63672 0.355469 9.85547C0.109375 10.1016 0 10.375 0 10.7031V13.5469C0 13.875 0.109375 14.1758 0.355469 14.3945C0.574219 14.6406 0.875 14.75 1.20312 14.75H12.7969C13.125 14.75 13.3984 14.6406 13.6445 14.3945C13.8633 14.1758 14 13.875 14 13.5469V10.7031ZM5.46875 5.91797H3.14453C3.03516 5.91797 2.98047 5.89062 2.95312 5.78125C2.89844 5.69922 2.92578 5.61719 3.00781 5.53516L6.83594 1.67969C6.89062 1.65234 6.94531 1.625 7 1.625C7.05469 1.625 7.10938 1.65234 7.16406 1.67969L10.9922 5.53516C11.0469 5.61719 11.0742 5.69922 11.0469 5.78125C10.9922 5.89062 10.9375 5.91797 10.8555 5.91797H8.53125V11.0312C8.53125 11.0859 8.50391 11.1406 8.44922 11.1953C8.39453 11.25 8.36719 11.25 8.3125 11.25H5.6875C5.63281 11.25 5.57812 11.25 5.52344 11.1953C5.46875 11.1406 5.46875 11.0859 5.46875 11.0312V5.91797ZM13.125 10.7031V13.5469C13.125 13.6562 13.0703 13.7383 13.0156 13.793C12.9609 13.8477 12.8789 13.875 12.7969 13.875H1.20312C1.09375 13.875 1.01172 13.8477 0.957031 13.793C0.902344 13.7383 0.875 13.6562 0.875 13.5469V10.7031C0.875 10.6211 0.902344 10.5391 0.957031 10.4844C1.01172 10.4297 1.09375 10.375 1.20312 10.375H4.59375V11.0312C4.59375 11.3594 4.67578 11.6055 4.89453 11.8242C5.11328 12.043 5.35938 12.125 5.6875 12.125H8.3125C8.61328 12.125 8.85938 12.043 9.07812 11.8242C9.29688 11.6055 9.40625 11.3594 9.40625 11.0312V10.375H12.7969C12.8789 10.375 12.9609 10.4297 13.0156 10.4844C13.0703 10.5391 13.125 10.6211 13.125 10.7031Z" fill="#303342" fill-opacity="0.8"/>
</svg>
