<svg width="34" height="36" viewBox="0 0 34 36" fill="none" xmlns="http://www.w3.org/2000/svg">
<g filter="url(#filter0_d)">
<path d="M6 13C6 6.92487 10.9249 2 17 2C23.0751 2 28 6.92487 28 13V15C28 21.0751 23.0751 26 17 26C10.9249 26 6 21.0751 6 15V13Z" fill="white"/>
<path d="M6.5 13C6.5 7.20101 11.201 2.5 17 2.5C22.799 2.5 27.5 7.20101 27.5 13V15C27.5 20.799 22.799 25.5 17 25.5C11.201 25.5 6.5 20.799 6.5 15V13Z" stroke="white"/>
</g>
<defs>
<filter id="filter0_d" x="0" y="0" width="34" height="36" filterUnits="userSpaceOnUse" color-interpolation-filters="sRGB">
<feFlood flood-opacity="0" result="BackgroundImageFix"/>
<feColorMatrix in="SourceAlpha" type="matrix" values="0 0 0 0 0 0 0 0 0 0 0 0 0 0 0 0 0 0 127 0"/>
<feOffset dy="4"/>
<feGaussianBlur stdDeviation="3"/>
<feColorMatrix type="matrix" values="0 0 0 0 0.188235 0 0 0 0 0.2 0 0 0 0 0.258824 0 0 0 0.2 0"/>
<feBlend mode="normal" in2="BackgroundImageFix" result="effect1_dropShadow"/>
<feBlend mode="normal" in="SourceGraphic" in2="effect1_dropShadow" result="shape"/>
</filter>
</defs>
</svg>
