<svg width="16" height="15" viewBox="0 0 16 15" fill="none" xmlns="http://www.w3.org/2000/svg">
<path d="M14.5625 8.625C14.918 8.625 15.2188 8.76172 15.4922 9.00781C15.7383 9.28125 15.875 9.58203 15.875 9.9375V13.4375C15.875 13.8203 15.7383 14.1211 15.4922 14.3672C15.2188 14.6406 14.918 14.75 14.5625 14.75H1.4375C1.05469 14.75 0.753906 14.6406 0.507812 14.3672C0.234375 14.1211 0.125 13.8203 0.125 13.4375V9.9375C0.125 9.58203 0.234375 9.28125 0.507812 9.00781C0.753906 8.76172 1.05469 8.625 1.4375 8.625H5.375V7.75H3.625C3.24219 7.75 2.91406 7.64062 2.66797 7.36719C2.42188 7.12109 2.28516 6.82031 2.28516 6.46484C2.28516 6.10938 2.42188 5.78125 2.69531 5.50781L7.07031 1.13281C7.31641 0.886719 7.61719 0.75 8 0.75C8.35547 0.75 8.65625 0.886719 8.92969 1.13281L13.3047 5.50781C13.5781 5.78125 13.6875 6.10938 13.6875 6.46484C13.6875 6.82031 13.5508 7.12109 13.3047 7.36719C13.0586 7.64062 12.7578 7.75 12.375 7.75H10.625V8.625H14.5625ZM3.625 6.4375H6.6875V10.8125H9.3125V6.4375H12.375L8 2.0625L3.625 6.4375ZM14.5625 13.4375V9.9375H10.625V10.8125C10.625 11.1953 10.4883 11.4961 10.2422 11.7422C9.96875 12.0156 9.66797 12.125 9.3125 12.125H6.6875C6.30469 12.125 6.00391 12.0156 5.75781 11.7422C5.48438 11.4961 5.375 11.1953 5.375 10.8125V9.9375H1.4375V13.4375H14.5625ZM13.4688 11.6875C13.4688 11.5234 13.3867 11.3594 13.2773 11.2227C13.1406 11.1133 12.9766 11.0312 12.8125 11.0312C12.6211 11.0312 12.457 11.1133 12.3477 11.2227C12.2109 11.3594 12.1562 11.5234 12.1562 11.6875C12.1562 11.8789 12.2109 12.043 12.3477 12.1523C12.457 12.2891 12.6211 12.3438 12.8125 12.3438C12.9766 12.3438 13.1406 12.2891 13.2773 12.1523C13.3867 12.043 13.4688 11.8789 13.4688 11.6875Z" fill="white"/>
</svg>
