<svg width="16" height="16" viewBox="0 0 16 16" fill="none" xmlns="http://www.w3.org/2000/svg">
<path fill-rule="evenodd" clip-rule="evenodd" d="M8 0C3.58214 0 0 3.58214 0 8C0 12.4179 3.58214 16 8 16C12.4179 16 16 12.4179 16 8C16 3.58214 12.4179 0 8 0ZM12.1036 5.32502L7.13573 11.7C7.09645 11.7393 7.03216 11.825 6.95359 11.825C6.87145 11.825 6.81788 11.7679 6.77145 11.7214C6.72502 11.675 3.95359 9.01073 3.95359 9.01073L3.90002 8.95716C3.87859 8.92502 3.86073 8.88573 3.86073 8.84287C3.86073 8.80002 3.87859 8.76073 3.90002 8.72859C3.9143 8.7143 3.92502 8.70359 3.9393 8.68573C4.2143 8.39644 4.77145 7.81073 4.80716 7.77502C4.85359 7.72859 4.89288 7.66787 4.97859 7.66787C5.06788 7.66787 5.12502 7.74287 5.16788 7.78573C5.21073 7.82859 6.77502 9.33216 6.77502 9.33216L10.75 4.22502C10.7857 4.19644 10.8286 4.17502 10.875 4.17502C10.9214 4.17502 10.9643 4.19287 11 4.22144L12.0929 5.08216C12.1214 5.11787 12.1393 5.16073 12.1393 5.20716C12.1429 5.25359 12.125 5.29287 12.1036 5.32502Z" fill="black"/>
<mask id="mask0" mask-type="alpha" maskUnits="userSpaceOnUse" x="0" y="0" width="16" height="16">
<path fill-rule="evenodd" clip-rule="evenodd" d="M8 0C3.58214 0 0 3.58214 0 8C0 12.4179 3.58214 16 8 16C12.4179 16 16 12.4179 16 8C16 3.58214 12.4179 0 8 0ZM12.1036 5.32502L7.13573 11.7C7.09645 11.7393 7.03216 11.825 6.95359 11.825C6.87145 11.825 6.81788 11.7679 6.77145 11.7214C6.72502 11.675 3.95359 9.01073 3.95359 9.01073L3.90002 8.95716C3.87859 8.92502 3.86073 8.88573 3.86073 8.84287C3.86073 8.80002 3.87859 8.76073 3.90002 8.72859C3.9143 8.7143 3.92502 8.70359 3.9393 8.68573C4.2143 8.39644 4.77145 7.81073 4.80716 7.77502C4.85359 7.72859 4.89288 7.66787 4.97859 7.66787C5.06788 7.66787 5.12502 7.74287 5.16788 7.78573C5.21073 7.82859 6.77502 9.33216 6.77502 9.33216L10.75 4.22502C10.7857 4.19644 10.8286 4.17502 10.875 4.17502C10.9214 4.17502 10.9643 4.19287 11 4.22144L12.0929 5.08216C12.1214 5.11787 12.1393 5.16073 12.1393 5.20716C12.1429 5.25359 12.125 5.29287 12.1036 5.32502Z" fill="white"/>
</mask>
<g mask="url(#mask0)">
<rect width="16" height="16" fill="#4ABB94"/>
</g>
</svg>
